<svg version="1.1" preserveAspectRatio="none" xmlns="http://www.w3.org/2000/svg" width="500" height="500" viewBox="0 0 500 500"><rect width="100%" height="100%" fill="#FFFFFF" fill-opacity="1"/><svg viewBox="-45.2071 135.2972 542.4671 133.48" width="417" height="102.60743923456371" x="41.5px" y="198.6963px" xmlns="http://www.w3.org/2000/svg" xmlns:xlink="http://www.w3.org/1999/xlink" preserveAspectRatio="none"><defs></defs><style>.background {fill:#FFFFFF;fill-opacity:1;}.companyName {fill:#0C0C0C;fill-opacity:1;}.icon3 {fill:#6F5CF3;fill-opacity:1;}.icon3-str {stroke:#6F5CF3;stroke-opacity:1;}.shape {fill:#F55649;fill-opacity:1;}.text {fill:#0C0C0C;fill-opacity:1;}.text-str {stroke:#0C0C0C;stroke-opacity:1;}</style><g opacity="1" transform="rotate(0 55.7928 135.2972)">
<svg width="441.4672" height="98" x="55.7928" y="135.2972" version="1.1" preserveAspectRatio="none" viewBox="0 0 441.4672 98">
  <defs><rect x="0" y="0" width="441.4672" height="98" rx="0px" ry="0px" id="id-B7crM0kCi1731960281492"></rect></defs><use class="companyName text-str" style="stroke-width:0;" xlink:href="#id-B7crM0kCi1731960281492"></use>
</svg>
</g><g opacity="1" transform="rotate(0 132.4094 251.2972)">
<svg width="187.2342" height="17.48" x="132.4094" y="251.2972" version="1.1" preserveAspectRatio="none" viewBox="0.6 -30.28 407.43999999999994 38.040000000000006">
  <g transform="matrix(1 0 0 1 0 0)" class="text"><path id="id-6izo4zJp19" d="M14.36-4L15.56-1.24Q14.72-0.52 13.48-0.14Q12.24 0.24 10.92 0.24L10.92 0.24Q7.72 0.24 5.96-1.48Q4.20-3.20 4.20-6.40L4.20-6.40L4.20-18.04L0.60-18.04L0.60-21.20L4.20-21.20L4.20-25.84L8.04-25.84L8.04-21.20L14.12-21.20L14.12-18.04L8.04-18.04L8.04-6.56Q8.04-4.84 8.90-3.92Q9.76-3 11.36-3L11.36-3Q13.12-3 14.36-4L14.36-4Z M38.12-21.20L41.96-21.20L41.96 0L38.32 0L38.32-3.20Q37.16-1.56 35.26-0.66Q33.36 0.24 31.12 0.24L31.12 0.24Q26.88 0.24 24.44-2.10Q22-4.44 22-9L22-9L22-21.20L25.84-21.20L25.84-9.44Q25.84-6.36 27.32-4.78Q28.80-3.20 31.56-3.20L31.56-3.20Q34.60-3.20 36.36-5.04Q38.12-6.88 38.12-10.24L38.12-10.24L38.12-21.20Z M71.76-21.40Q76.16-21.40 78.50-19.24Q80.84-17.08 80.84-12.80L80.84-12.80L80.84 0L77.20 0L77.20-2.80Q76.24-1.32 74.46-0.54Q72.68 0.24 70.24 0.24L70.24 0.24Q66.68 0.24 64.54-1.48Q62.40-3.20 62.40-6L62.40-6Q62.40-8.80 64.44-10.50Q66.48-12.20 70.92-12.20L70.92-12.20L77-12.20L77-12.96Q77-15.44 75.56-16.76Q74.12-18.08 71.32-18.08L71.32-18.08Q69.44-18.08 67.64-17.46Q65.84-16.84 64.60-15.80L64.60-15.80L63-18.68Q64.64-20 66.92-20.70Q69.20-21.40 71.76-21.40L71.76-21.40ZM70.88-2.72Q73.08-2.72 74.68-3.70Q76.28-4.68 77-6.48L77-6.48L77-9.44L71.08-9.44Q66.20-9.44 66.20-6.16L66.20-6.16Q66.20-4.56 67.44-3.64Q68.68-2.72 70.88-2.72L70.88-2.72Z M89.96 0L89.96-29.68L93.80-29.68L93.80 0L89.96 0Z M103.12 0L103.12-21.20L106.96-21.20L106.96 0L103.12 0ZM105.04-25.28Q103.92-25.28 103.18-26Q102.44-26.72 102.44-27.76L102.44-27.76Q102.44-28.80 103.18-29.54Q103.92-30.28 105.04-30.28L105.04-30.28Q106.16-30.28 106.90-29.58Q107.64-28.88 107.64-27.84L107.64-27.84Q107.64-26.76 106.90-26.02Q106.16-25.28 105.04-25.28L105.04-25.28Z M124.00-21.40Q128.40-21.40 130.74-19.24Q133.08-17.08 133.08-12.80L133.08-12.80L133.08 0L129.44 0L129.44-2.80Q128.48-1.32 126.70-0.54Q124.92 0.24 122.48 0.24L122.48 0.24Q118.92 0.24 116.78-1.48Q114.64-3.20 114.64-6L114.64-6Q114.64-8.80 116.68-10.50Q118.72-12.20 123.16-12.20L123.16-12.20L129.24-12.20L129.24-12.96Q129.24-15.44 127.80-16.76Q126.36-18.08 123.56-18.08L123.56-18.08Q121.68-18.08 119.88-17.46Q118.08-16.84 116.84-15.80L116.84-15.80L115.24-18.68Q116.88-20 119.16-20.70Q121.44-21.40 124.00-21.40L124.00-21.40ZM123.12-2.72Q125.32-2.72 126.92-3.70Q128.52-4.68 129.24-6.48L129.24-6.48L129.24-9.44L123.32-9.44Q118.44-9.44 118.44-6.16L118.44-6.16Q118.44-4.56 119.68-3.64Q120.92-2.72 123.12-2.72L123.12-2.72Z M158.48-29.68L162.32-29.68L162.32 0L158.64 0L158.64-3.36Q157.36-1.60 155.40-0.68Q153.44 0.24 151.08 0.24L151.08 0.24Q148 0.24 145.56-1.12Q143.12-2.48 141.74-4.94Q140.36-7.40 140.36-10.60L140.36-10.60Q140.36-13.80 141.74-16.24Q143.12-18.68 145.56-20.04Q148-21.40 151.08-21.40L151.08-21.40Q153.36-21.40 155.28-20.54Q157.20-19.68 158.48-18L158.48-18L158.48-29.68ZM151.40-3.12Q153.40-3.12 155.04-4.06Q156.68-5 157.60-6.70Q158.52-8.40 158.52-10.60L158.52-10.60Q158.52-12.80 157.60-14.50Q156.68-16.20 155.04-17.12Q153.40-18.04 151.40-18.04L151.40-18.04Q149.36-18.04 147.74-17.12Q146.12-16.20 145.18-14.50Q144.24-12.80 144.24-10.60L144.24-10.60Q144.24-8.40 145.18-6.70Q146.12-5 147.74-4.06Q149.36-3.12 151.40-3.12L151.40-3.12Z M180.68 0.24Q177.52 0.24 175-1.16Q172.48-2.56 171.06-5.02Q169.64-7.48 169.64-10.60L169.64-10.60Q169.64-13.72 171.06-16.18Q172.48-18.64 175-20.02Q177.52-21.40 180.68-21.40L180.68-21.40Q183.84-21.40 186.34-20.02Q188.84-18.64 190.26-16.18Q191.68-13.72 191.68-10.60L191.68-10.60Q191.68-7.48 190.26-5.02Q188.84-2.56 186.34-1.16Q183.84 0.24 180.68 0.24L180.68 0.24ZM180.68-3.12Q182.72-3.12 184.34-4.06Q185.96-5 186.88-6.70Q187.80-8.40 187.80-10.60L187.80-10.60Q187.80-12.80 186.88-14.50Q185.96-16.20 184.34-17.12Q182.72-18.04 180.68-18.04L180.68-18.04Q178.64-18.04 177.02-17.12Q175.40-16.20 174.46-14.50Q173.52-12.80 173.52-10.60L173.52-10.60Q173.52-8.40 174.46-6.70Q175.40-5 177.02-4.06Q178.64-3.12 180.68-3.12L180.68-3.12Z M227.92-29.68L231.76-29.68L231.76 0L228.08 0L228.08-3.36Q226.80-1.60 224.84-0.68Q222.88 0.24 220.52 0.24L220.52 0.24Q217.44 0.24 215-1.12Q212.56-2.48 211.18-4.94Q209.80-7.40 209.80-10.60L209.80-10.60Q209.80-13.80 211.18-16.24Q212.56-18.68 215-20.04Q217.44-21.40 220.52-21.40L220.52-21.40Q222.80-21.40 224.72-20.54Q226.64-19.68 227.92-18L227.92-18L227.92-29.68ZM220.84-3.12Q222.84-3.12 224.48-4.06Q226.12-5 227.04-6.70Q227.96-8.40 227.96-10.60L227.96-10.60Q227.96-12.80 227.04-14.50Q226.12-16.20 224.48-17.12Q222.84-18.04 220.84-18.04L220.84-18.04Q218.80-18.04 217.18-17.12Q215.56-16.20 214.62-14.50Q213.68-12.80 213.68-10.60L213.68-10.60Q213.68-8.40 214.62-6.70Q215.56-5 217.18-4.06Q218.80-3.12 220.84-3.12L220.84-3.12Z M260.20-10.48Q260.20-10.04 260.12-9.32L260.12-9.32L242.92-9.32Q243.28-6.52 245.38-4.82Q247.48-3.12 250.60-3.12L250.60-3.12Q254.40-3.12 256.72-5.68L256.72-5.68L258.84-3.20Q257.40-1.52 255.26-0.64Q253.12 0.24 250.48 0.24L250.48 0.24Q247.12 0.24 244.52-1.14Q241.92-2.52 240.50-5Q239.08-7.48 239.08-10.60L239.08-10.60Q239.08-13.68 240.46-16.16Q241.84-18.64 244.26-20.02Q246.68-21.40 249.72-21.40L249.72-21.40Q252.76-21.40 255.14-20.02Q257.52-18.64 258.86-16.16Q260.20-13.68 260.20-10.48L260.20-10.48ZM249.72-18.16Q246.96-18.16 245.10-16.48Q243.24-14.80 242.92-12.08L242.92-12.08L256.52-12.08Q256.20-14.76 254.34-16.46Q252.48-18.16 249.72-18.16L249.72-18.16Z M267.52 0L267.52-29.68L271.36-29.68L271.36 0L267.52 0Z M304.68-21.40Q307.76-21.40 310.20-20.04Q312.64-18.68 314.02-16.24Q315.40-13.80 315.40-10.60L315.40-10.60Q315.40-7.40 314.02-4.94Q312.64-2.48 310.20-1.12Q307.76 0.24 304.68 0.24L304.68 0.24Q302.40 0.24 300.50-0.64Q298.60-1.52 297.28-3.20L297.28-3.20L297.28 7.76L293.44 7.76L293.44-21.20L297.12-21.20L297.12-17.84Q298.40-19.60 300.36-20.50Q302.32-21.40 304.68-21.40L304.68-21.40ZM304.36-3.12Q306.40-3.12 308.02-4.06Q309.64-5 310.58-6.70Q311.52-8.40 311.52-10.60L311.52-10.60Q311.52-12.80 310.58-14.50Q309.64-16.20 308.02-17.12Q306.40-18.04 304.36-18.04L304.36-18.04Q302.36-18.04 300.74-17.10Q299.12-16.16 298.18-14.48Q297.24-12.80 297.24-10.60L297.24-10.60Q297.24-8.40 298.16-6.70Q299.08-5 300.72-4.06Q302.36-3.12 304.36-3.12L304.36-3.12Z M330.24-21.40Q334.64-21.40 336.98-19.24Q339.32-17.08 339.32-12.80L339.32-12.80L339.32 0L335.68 0L335.68-2.80Q334.72-1.32 332.94-0.54Q331.16 0.24 328.72 0.24L328.72 0.24Q325.16 0.24 323.02-1.48Q320.88-3.20 320.88-6L320.88-6Q320.88-8.80 322.92-10.50Q324.96-12.20 329.40-12.20L329.40-12.20L335.48-12.20L335.48-12.96Q335.48-15.44 334.04-16.76Q332.60-18.08 329.80-18.08L329.80-18.08Q327.92-18.08 326.12-17.46Q324.32-16.84 323.08-15.80L323.08-15.80L321.48-18.68Q323.12-20 325.40-20.70Q327.68-21.40 330.24-21.40L330.24-21.40ZM329.36-2.72Q331.56-2.72 333.16-3.70Q334.76-4.68 335.48-6.48L335.48-6.48L335.48-9.44L329.56-9.44Q324.68-9.44 324.68-6.16L324.68-6.16Q324.68-4.56 325.92-3.64Q327.16-2.72 329.36-2.72L329.36-2.72Z M359.68-21.40Q362.76-21.40 365.20-20.04Q367.64-18.68 369.02-16.24Q370.40-13.80 370.40-10.60L370.40-10.60Q370.40-7.40 369.02-4.94Q367.64-2.48 365.20-1.12Q362.76 0.24 359.68 0.24L359.68 0.24Q357.40 0.24 355.50-0.64Q353.60-1.52 352.28-3.20L352.28-3.20L352.28 7.76L348.44 7.76L348.44-21.20L352.12-21.20L352.12-17.84Q353.40-19.60 355.36-20.50Q357.32-21.40 359.68-21.40L359.68-21.40ZM359.36-3.12Q361.40-3.12 363.02-4.06Q364.64-5 365.58-6.70Q366.52-8.40 366.52-10.60L366.52-10.60Q366.52-12.80 365.58-14.50Q364.64-16.20 363.02-17.12Q361.40-18.04 359.36-18.04L359.36-18.04Q357.36-18.04 355.74-17.10Q354.12-16.16 353.18-14.48Q352.24-12.80 352.24-10.60L352.24-10.60Q352.24-8.40 353.16-6.70Q354.08-5 355.72-4.06Q357.36-3.12 359.36-3.12L359.36-3.12Z M396.88-10.48Q396.88-10.04 396.80-9.32L396.80-9.32L379.60-9.32Q379.96-6.52 382.06-4.82Q384.16-3.12 387.28-3.12L387.28-3.12Q391.08-3.12 393.40-5.68L393.40-5.68L395.52-3.20Q394.08-1.52 391.94-0.64Q389.80 0.24 387.16 0.24L387.16 0.24Q383.80 0.24 381.20-1.14Q378.60-2.52 377.18-5Q375.76-7.48 375.76-10.60L375.76-10.60Q375.76-13.68 377.14-16.16Q378.52-18.64 380.94-20.02Q383.36-21.40 386.40-21.40L386.40-21.40Q389.44-21.40 391.82-20.02Q394.20-18.64 395.54-16.16Q396.88-13.68 396.88-10.48L396.88-10.48ZM386.40-18.16Q383.64-18.16 381.78-16.48Q379.92-14.80 379.60-12.08L379.60-12.08L393.20-12.08Q392.88-14.76 391.02-16.46Q389.16-18.16 386.40-18.16L386.40-18.16Z M404.20 0L404.20-29.68L408.04-29.68L408.04 0L404.20 0Z"/></g>
</svg>
</g><g opacity="1" transform="rotate(0 85.7928 165.2972)">
<svg width="381.4672" height="38" x="85.7928" y="165.2972" version="1.1" preserveAspectRatio="none" viewBox="4.3359 -30.5273 400.9571 39.9414">
  <g transform="matrix(1 0 0 1 0 0)" class="background"><path id="id-D6z1nYkh14" d="M4.34 0L4.34-30.53L30.33-30.53L30.33-25.10L10.53-25.10L10.53-19.00L28.07-19.00L28.07-13.91L10.53-13.91L10.53-5.41L30.74-5.41L30.74 0L4.34 0Z M42.52-1.66L42.52 9.41L36.74 9.41L36.74-23.05L42.52-23.05L42.52-20.88Q43.28-21.41 44.32-21.88Q45.35-22.34 46.54-22.70Q47.73-23.05 49.00-23.25Q50.27-23.46 51.54-23.46L51.54-23.46Q54.47-23.46 56.92-22.60Q59.38-21.74 61.13-20.18Q62.89-18.61 63.88-16.44Q64.86-14.26 64.86-11.62L64.86-11.62Q64.86-8.87 63.83-6.65Q62.79-4.43 60.97-2.86Q59.14-1.29 56.63-0.44Q54.12 0.41 51.19 0.41L51.19 0.41Q49.94 0.41 48.72 0.25Q47.50 0.10 46.38-0.18Q45.25-0.45 44.27-0.83Q43.28-1.21 42.52-1.66L42.52-1.66ZM42.52-15.23L42.52-7.25Q43.40-6.54 44.38-6.05Q45.35-5.57 46.37-5.25Q47.38-4.94 48.42-4.79Q49.45-4.65 50.43-4.65L50.43-4.65Q52.42-4.65 53.97-5.19Q55.53-5.72 56.59-6.66Q57.66-7.60 58.22-8.87Q58.79-10.14 58.79-11.62L58.79-11.62Q58.79-13.01 58.23-14.24Q57.68-15.47 56.63-16.40Q55.59-17.32 54.11-17.86Q52.64-18.40 50.80-18.40L50.80-18.40Q49.63-18.40 48.46-18.17Q47.29-17.95 46.20-17.54Q45.12-17.13 44.17-16.54Q43.22-15.96 42.52-15.23L42.52-15.23Z M69.22-7.27L69.22-7.27Q69.22-8.93 69.94-10.29Q70.66-11.66 72.11-12.65Q73.55-13.63 75.71-14.17Q77.87-14.71 80.74-14.71L80.74-14.71Q82.87-14.71 85.22-14.39Q87.58-14.08 90.08-13.44L90.08-13.44Q89.98-14.53 89.41-15.46Q88.85-16.39 87.84-17.06Q86.84-17.73 85.42-18.11Q84.00-18.48 82.21-18.48L82.21-18.48Q81.23-18.48 80.06-18.36Q78.89-18.24 77.64-18.01Q76.39-17.77 75.17-17.42Q73.95-17.07 72.89-16.58L72.89-16.58L71.13-21.33Q72.44-21.80 73.94-22.19Q75.43-22.58 76.99-22.86Q78.55-23.14 80.12-23.30Q81.68-23.46 83.14-23.46L83.14-23.46Q89.61-23.46 92.75-20.16Q95.90-16.86 95.90-10.04L95.90-10.04L95.90 0L90.12 0L90.12-2.17Q89.22-1.64 88.15-1.17Q87.09-0.70 85.84-0.35Q84.59 0 83.15 0.21Q81.72 0.41 80.12 0.41L80.12 0.41Q77.42 0.41 75.38-0.18Q73.34-0.76 71.97-1.80Q70.61-2.83 69.91-4.23Q69.22-5.63 69.22-7.27ZM75.31-7.46L75.31-7.46Q75.31-6.89 75.61-6.38Q75.90-5.86 76.54-5.46Q77.19-5.06 78.19-4.81Q79.20-4.57 80.63-4.57L80.63-4.57Q82.15-4.57 83.57-4.84Q85-5.12 86.23-5.57Q87.46-6.02 88.46-6.60Q89.45-7.19 90.12-7.81L90.12-7.81L90.12-8.83Q88.79-9.20 87.49-9.45Q86.19-9.71 85.01-9.85Q83.83-10 82.78-10.06Q81.74-10.12 80.96-10.12L80.96-10.12Q79.34-10.12 78.26-9.90Q77.19-9.69 76.52-9.33Q75.86-8.96 75.59-8.48Q75.31-7.99 75.31-7.46Z M109.16-1.66L109.16 9.41L103.38 9.41L103.38-23.05L109.16-23.05L109.16-20.88Q109.92-21.41 110.96-21.88Q111.99-22.34 113.18-22.70Q114.38-23.05 115.64-23.25Q116.91-23.46 118.18-23.46L118.18-23.46Q121.11-23.46 123.56-22.60Q126.02-21.74 127.77-20.18Q129.53-18.61 130.52-16.44Q131.50-14.26 131.50-11.62L131.50-11.62Q131.50-8.87 130.47-6.65Q129.43-4.43 127.61-2.86Q125.78-1.29 123.27-0.44Q120.76 0.41 117.83 0.41L117.83 0.41Q116.58 0.41 115.36 0.25Q114.14 0.10 113.02-0.18Q111.89-0.45 110.91-0.83Q109.92-1.21 109.16-1.66L109.16-1.66ZM109.16-15.23L109.16-7.25Q110.04-6.54 111.02-6.05Q111.99-5.57 113.01-5.25Q114.02-4.94 115.06-4.79Q116.09-4.65 117.07-4.65L117.07-4.65Q119.06-4.65 120.62-5.19Q122.17-5.72 123.23-6.66Q124.30-7.60 124.86-8.87Q125.43-10.14 125.43-11.62L125.43-11.62Q125.43-13.01 124.87-14.24Q124.32-15.47 123.27-16.40Q122.23-17.32 120.75-17.86Q119.28-18.40 117.44-18.40L117.44-18.40Q116.27-18.40 115.10-18.17Q113.93-17.95 112.84-17.54Q111.76-17.13 110.81-16.54Q109.86-15.96 109.16-15.23L109.16-15.23Z M135.86-11.60L135.86-11.60Q135.86-13.95 136.82-16.08Q137.77-18.22 139.57-19.86Q141.37-21.50 143.97-22.48Q146.58-23.46 149.90-23.46L149.90-23.46Q153.20-23.46 155.85-22.47Q158.50-21.48 160.34-19.77Q162.19-18.05 163.17-15.72Q164.16-13.40 164.16-10.74L164.16-10.74Q164.16-10.41 164.15-10.03Q164.14-9.65 164.10-9.34L164.10-9.34L142.30-9.34Q142.68-8.30 143.51-7.44Q144.34-6.58 145.59-5.96Q146.84-5.33 148.48-4.99Q150.12-4.65 152.11-4.65L152.11-4.65Q154.10-4.65 156.07-5.07Q158.05-5.49 159.84-6.13L159.84-6.13L161.80-1.72Q160.66-1.19 159.50-0.79Q158.34-0.39 157.08-0.13Q155.82 0.14 154.44 0.27Q153.07 0.41 151.54 0.41L151.54 0.41Q147.66 0.41 144.73-0.53Q141.80-1.46 139.82-3.09Q137.85-4.71 136.86-6.89Q135.86-9.08 135.86-11.60ZM142.30-13.85L158.03-13.85Q157.71-14.80 157.06-15.63Q156.41-16.46 155.43-17.08Q154.45-17.70 153.16-18.05Q151.88-18.40 150.33-18.40L150.33-18.40Q148.69-18.40 147.34-18.03Q146.00-17.66 144.98-17.03Q143.96-16.41 143.29-15.59Q142.62-14.77 142.30-13.85L142.30-13.85Z M170.37 0L170.37-23.05L176.15-23.05L176.15-19.73Q178.07-21.15 180.20-22.19Q182.32-23.22 184.43-23.77L184.43-23.77L186.13-18.48Q182.79-18.14 180.26-16.98Q177.73-15.82 176.15-13.71L176.15-13.71L176.15 0L170.37 0Z M204.43 0L204.43-30.53L230.43-30.53L230.43-25.10L210.63-25.10L210.63-19.00L228.16-19.00L228.16-13.91L210.63-13.91L210.63-5.41L230.84-5.41L230.84 0L204.43 0Z M233.79 0L242.97-11.52L233.44-23.07L240.82-23.07L246.60-16.04L252.09-23.07L259.30-23.07L250.33-11.54L259.86 0L252.48 0L246.52-7.21L241.00 0L233.79 0Z M269.18-1.66L269.18 9.41L263.40 9.41L263.40-23.05L269.18-23.05L269.18-20.88Q269.94-21.41 270.98-21.88Q272.01-22.34 273.20-22.70Q274.39-23.05 275.66-23.25Q276.93-23.46 278.20-23.46L278.20-23.46Q281.13-23.46 283.58-22.60Q286.04-21.74 287.79-20.18Q289.55-18.61 290.54-16.44Q291.52-14.26 291.52-11.62L291.52-11.62Q291.52-8.87 290.49-6.65Q289.45-4.43 287.63-2.86Q285.80-1.29 283.29-0.44Q280.78 0.41 277.85 0.41L277.85 0.41Q276.60 0.41 275.38 0.25Q274.16 0.10 273.04-0.18Q271.91-0.45 270.93-0.83Q269.94-1.21 269.18-1.66L269.18-1.66ZM269.18-15.23L269.18-7.25Q270.06-6.54 271.04-6.05Q272.01-5.57 273.03-5.25Q274.04-4.94 275.08-4.79Q276.11-4.65 277.09-4.65L277.09-4.65Q279.08-4.65 280.63-5.19Q282.19-5.72 283.25-6.66Q284.32-7.60 284.88-8.87Q285.45-10.14 285.45-11.62L285.45-11.62Q285.45-13.01 284.89-14.24Q284.34-15.47 283.29-16.40Q282.25-17.32 280.77-17.86Q279.30-18.40 277.46-18.40L277.46-18.40Q276.29-18.40 275.12-18.17Q273.95-17.95 272.86-17.54Q271.78-17.13 270.83-16.54Q269.88-15.96 269.18-15.23L269.18-15.23Z M296.97 0L296.97-23.05L302.75-23.05L302.75-19.73Q304.67-21.15 306.80-22.19Q308.93-23.22 311.04-23.77L311.04-23.77L312.73-18.48Q309.39-18.14 306.87-16.98Q304.34-15.82 302.75-13.71L302.75-13.71L302.75 0L296.97 0Z M315.94-11.60L315.94-11.60Q315.94-13.95 316.89-16.08Q317.85-18.22 319.65-19.86Q321.45-21.50 324.05-22.48Q326.66-23.46 329.98-23.46L329.98-23.46Q333.28-23.46 335.93-22.47Q338.57-21.48 340.42-19.77Q342.27-18.05 343.25-15.72Q344.24-13.40 344.24-10.74L344.24-10.74Q344.24-10.41 344.23-10.03Q344.22-9.65 344.18-9.34L344.18-9.34L322.38-9.34Q322.75-8.30 323.58-7.44Q324.41-6.58 325.66-5.96Q326.91-5.33 328.55-4.99Q330.20-4.65 332.19-4.65L332.19-4.65Q334.18-4.65 336.15-5.07Q338.13-5.49 339.92-6.13L339.92-6.13L341.88-1.72Q340.74-1.19 339.58-0.79Q338.42-0.39 337.16-0.13Q335.90 0.14 334.52 0.27Q333.14 0.41 331.62 0.41L331.62 0.41Q327.73 0.41 324.80-0.53Q321.88-1.46 319.90-3.09Q317.93-4.71 316.93-6.89Q315.94-9.08 315.94-11.60ZM322.38-13.85L338.11-13.85Q337.79-14.80 337.14-15.63Q336.48-16.46 335.51-17.08Q334.53-17.70 333.24-18.05Q331.95-18.40 330.41-18.40L330.41-18.40Q328.77-18.40 327.42-18.03Q326.07-17.66 325.06-17.03Q324.04-16.41 323.37-15.59Q322.70-14.77 322.38-13.85L322.38-13.85Z M348.87-2.70L351.37-7.07Q353.71-5.66 356.52-5Q359.34-4.34 362.29-4.34L362.29-4.34Q364.28-4.34 365.61-4.61Q366.93-4.88 367.73-5.31Q368.54-5.74 368.87-6.29Q369.20-6.84 369.20-7.40L369.20-7.40Q369.20-8.22 368.49-8.81Q367.77-9.39 366.13-9.39L366.13-9.39Q365.37-9.39 364.49-9.30Q363.61-9.20 362.65-9.09Q361.68-8.98 360.63-8.89Q359.59-8.79 358.52-8.79L358.52-8.79Q356.17-8.79 354.52-9.30Q352.87-9.80 351.84-10.68Q350.80-11.56 350.33-12.76Q349.86-13.96 349.86-15.35L349.86-15.35Q349.86-17.11 350.68-18.59Q351.50-20.08 353.03-21.16Q354.55-22.25 356.71-22.85Q358.87-23.46 361.52-23.46L361.52-23.46Q362.91-23.46 364.42-23.29Q365.94-23.13 367.40-22.85Q368.87-22.58 370.21-22.22Q371.56-21.86 372.60-21.45L372.60-21.45L370.78-16.95Q368.57-17.77 366.38-18.25Q364.18-18.73 361.86-18.73L361.86-18.73Q360.23-18.73 359.11-18.49Q357.99-18.24 357.29-17.84Q356.58-17.44 356.26-16.92Q355.94-16.41 355.94-15.84L355.94-15.84Q355.94-15.43 356.10-15.10Q356.27-14.77 356.65-14.52Q357.03-14.28 357.65-14.15Q358.26-14.02 359.16-14.02L359.16-14.02Q359.98-14.02 360.90-14.12Q361.82-14.22 362.81-14.33Q363.81-14.43 364.87-14.53Q365.94-14.63 367.05-14.63L367.05-14.63Q369.12-14.63 370.67-14.14Q372.23-13.65 373.24-12.77Q374.26-11.89 374.77-10.70Q375.27-9.51 375.27-8.11L375.27-8.11Q375.27-6.29 374.43-4.73Q373.59-3.16 371.93-2.02Q370.27-0.88 367.80-0.23Q365.33 0.41 362.09 0.41L362.09 0.41Q360.10 0.41 358.24 0.17Q356.39-0.08 354.71-0.50Q353.03-0.92 351.55-1.48Q350.08-2.05 348.87-2.70L348.87-2.70Z M378.89-2.70L381.39-7.07Q383.73-5.66 386.54-5Q389.36-4.34 392.30-4.34L392.30-4.34Q394.30-4.34 395.63-4.61Q396.95-4.88 397.75-5.31Q398.55-5.74 398.89-6.29Q399.22-6.84 399.22-7.40L399.22-7.40Q399.22-8.22 398.51-8.81Q397.79-9.39 396.15-9.39L396.15-9.39Q395.39-9.39 394.51-9.30Q393.63-9.20 392.67-9.09Q391.70-8.98 390.65-8.89Q389.61-8.79 388.54-8.79L388.54-8.79Q386.19-8.79 384.54-9.30Q382.89-9.80 381.86-10.68Q380.82-11.56 380.35-12.76Q379.88-13.96 379.88-15.35L379.88-15.35Q379.88-17.11 380.70-18.59Q381.52-20.08 383.05-21.16Q384.57-22.25 386.73-22.85Q388.89-23.46 391.54-23.46L391.54-23.46Q392.93-23.46 394.44-23.29Q395.96-23.13 397.42-22.85Q398.89-22.58 400.23-22.22Q401.58-21.86 402.62-21.45L402.62-21.45L400.80-16.95Q398.59-17.77 396.40-18.25Q394.20-18.73 391.88-18.73L391.88-18.73Q390.25-18.73 389.13-18.49Q388.01-18.24 387.30-17.84Q386.60-17.44 386.28-16.92Q385.96-16.41 385.96-15.84L385.96-15.84Q385.96-15.43 386.12-15.10Q386.29-14.77 386.67-14.52Q387.05-14.28 387.67-14.15Q388.28-14.02 389.18-14.02L389.18-14.02Q390-14.02 390.92-14.12Q391.84-14.22 392.83-14.33Q393.83-14.43 394.89-14.53Q395.96-14.63 397.07-14.63L397.07-14.63Q399.14-14.63 400.69-14.14Q402.25-13.65 403.26-12.77Q404.28-11.89 404.79-10.70Q405.29-9.51 405.29-8.11L405.29-8.11Q405.29-6.29 404.45-4.73Q403.61-3.16 401.95-2.02Q400.29-0.88 397.82-0.23Q395.35 0.41 392.11 0.41L392.11 0.41Q390.12 0.41 388.26 0.17Q386.41-0.08 384.73-0.50Q383.05-0.92 381.57-1.48Q380.10-2.05 378.89-2.70L378.89-2.70Z"/></g>
</svg>
</g><g opacity="1" transform="rotate(0 -45.2071 135.2972)">
<svg width="97.9999" height="98" x="-45.2071" y="135.2972" version="1.1" preserveAspectRatio="none" viewBox="0 0 97.9999 98">
  <defs><rect x="0" y="0" width="97.9999" height="98" rx="0px" ry="0px" id="id-tBXipXk0b1731960281493"></rect></defs><use class="companyName text-str" style="stroke-width:0;" xlink:href="#id-tBXipXk0b1731960281493"></use>
</svg>
</g><g opacity="1" transform="rotate(0 -23.5073 145.2972)">
<svg width="54.6003" height="78" x="-23.5073" y="145.2972" version="1.1" preserveAspectRatio="none" viewBox="44 20.000642776489258 112 159.99935913085938">
  <g transform="matrix(1 0 0 1 0 0)"><g><path d="m83.496 48.369 42.751 77.54c3.546 6.432 11.633 9.015 18.146 5.585 6.656-3.501 9.114-11.736 5.506-18.28l-42.858-77.733a10.879 10.879 0 0 0-1.299-1.859 10.73 10.73 0 0 0-2.724-2.254l-17.186-9.986c-1.258-.733-2.85.138-2.904 1.589L82.17 42.78a10.746 10.746 0 0 0 .502 3.677l.002.003c.21.659.485 1.297.822 1.909z" data-color="1" class="icon3"></path><path d="m121.374 117.069 4.874 8.839c3.546 6.432 11.633 9.015 18.146 5.585 6.656-3.501 9.114-11.736 5.506-18.28l-5.086-9.225c-3.515 2.877-8.863 7.254-9.226 7.489-.511.331-10.838 4.765-11.703 4.849-.337.033-1.327.343-2.511.743z" data-color="2" class="shape"></path><path d="m119.378 113.449 3.343 6.063a37.963 37.963 0 0 0 23.546-12.887l-3.343-6.063a31.569 31.569 0 0 1-23.546 12.887z" data-color="3" class="background"></path><path d="m119.378 113.449 3.343 6.063a37.963 37.963 0 0 0 23.546-12.887l-3.343-6.063a31.569 31.569 0 0 1-23.546 12.887z" opacity=".3"></path><path d="M141.861 110.99a37.898 37.898 0 0 0 4.406-4.364l-3.343-6.063a30.928 30.928 0 0 1-2.581 3.096l3.092 5.608a34.297 34.297 0 0 1-1.574 1.723z" data-color="3" class="background"></path><path d="m82.672 46.457.002.003c2.679 2.82 5.78 3.177 7.505-.861 3.396 3.293 8.957-.234 8.984-4.553 5.224 1.314 7.471-1.995 6.581-7.423a10.73 10.73 0 0 0-2.724-2.254l-13.24-7.693-.002-.003-3.945-2.291c-1.258-.733-2.85.138-2.904 1.589l-.176 4.546.002.003-.585 15.26a10.746 10.746 0 0 0 .502 3.677z" data-color="4" class="icon3"></path><path d="M142.781 132.209a13.44 13.44 0 0 0 1.613-.715c6.656-3.501 9.114-11.736 5.506-18.28l-42.858-77.733a10.879 10.879 0 0 0-1.299-1.859 10.73 10.73 0 0 0-2.724-2.254l-17.186-9.986c-1.258-.733-2.85.138-2.904 1.589l-.027.673 16.604 9.646a10.73 10.73 0 0 1 2.724 2.254c.493.57.931 1.192 1.299 1.859l42.858 77.733c3.24 5.877 1.589 13.121-3.606 17.073z" data-color="3" class="background"></path><path d="m82.754 27.518.002.003c2.028 3.671 9.047-.171 7.024-3.845l-.002-.003-3.945-2.291c-1.258-.733-2.85.138-2.904 1.589l-.175 4.547z" data-color="5" class="shape"></path><path d="M86.642 49.56c-1.519 0-3.15-.848-4.665-2.443a.956.956 0 0 1 .267-1.514.962.962 0 0 1 1.156.23c1.262 1.318 2.572 1.968 3.599 1.784 1.141-.204 1.879-1.414 2.298-2.393a.96.96 0 0 1 1.552-.311c1.499 1.453 3.213 1.049 4.102.679 1.904-.794 3.241-2.666 3.253-4.553a.961.961 0 0 1 1.194-.921c1.327.334 3.153.508 4.321-.561 1.136-1.04 1.519-3.093 1.078-5.781a.96.96 0 0 1 1.894-.309c.557 3.394-.022 5.987-1.674 7.498-.877.802-2.432 1.608-5.012 1.223-.443 2.214-2.097 4.243-4.313 5.167-1.802.751-3.662.63-5.18-.295-1.019 1.701-2.252 2.273-3.173 2.437a3.87 3.87 0 0 1-.697.063z" data-color="5" class="shape"></path><path d="M85.391 29.955c-1.394 0-2.71-.583-3.478-1.976a.954.954 0 0 1 .379-1.298.961.961 0 0 1 1.303.378c.316.574.821.903 1.5.976.678.074 1.49-.116 2.229-.52 1.286-.704 2.34-2.062 1.613-3.38a.954.954 0 0 1 .379-1.298.961.961 0 0 1 1.303.378c.618 1.121.64 2.381.062 3.55-.478.967-1.342 1.829-2.433 2.426-.886.484-1.89.764-2.857.764z" data-color="5" class="shape"></path><path d="m83.496 48.369 42.751 77.54c3.546 6.432 11.633 9.015 18.146 5.585a13.618 13.618 0 0 0 2.545-1.731c-5.987 1.775-12.621-.905-15.74-6.563L88.447 45.66a10.75 10.75 0 0 1-.823-1.909l-.002-.003a10.746 10.746 0 0 1-.502-3.677l.672-17.55-1.959-1.138c-1.258-.733-2.85.138-2.904 1.589L82.17 42.78a10.746 10.746 0 0 0 .502 3.677l.002.003c.21.659.485 1.297.822 1.909z" opacity=".15"></path><path d="M138.264 134.119c-5.207 0-10.307-2.794-12.997-7.674L82.515 48.904a11.843 11.843 0 0 1-1.463-6.167l.758-19.807a3.014 3.014 0 0 1 1.581-2.55 3.037 3.037 0 0 1 3.008.039l17.185 9.987a11.89 11.89 0 0 1 4.439 4.538l42.858 77.734a14.344 14.344 0 0 1 1.184 11.145 14.408 14.408 0 0 1-7.147 8.658 14.255 14.255 0 0 1-6.654 1.638zM84.477 47.83l42.752 77.541c3.274 5.939 10.741 8.244 16.644 5.137a12.187 12.187 0 0 0 6.048-7.327c.956-3.176.6-6.525-1.002-9.431L106.06 36.017a9.658 9.658 0 0 0-3.605-3.685L85.27 22.345a.807.807 0 0 0-.802-.01.799.799 0 0 0-.422.68l-.758 19.807a9.622 9.622 0 0 0 1.189 5.008z" data-color="5" class="shape"></path><path d="M122.721 120.468a.96.96 0 0 1-.841-.496l-3.343-6.063a.954.954 0 0 1 .781-1.414c9.13-.568 17.451-5.123 22.829-12.495a.957.957 0 0 1 .837-.392c.328.02.622.207.78.494l3.343 6.063a.953.953 0 0 1-.111 1.081 38.885 38.885 0 0 1-24.141 13.213 1.005 1.005 0 0 1-.134.009zm-1.792-6.191 2.311 4.191a36.968 36.968 0 0 0 21.864-11.967l-2.311-4.191a32.413 32.413 0 0 1-21.864 11.967z" data-color="5" class="shape"></path><path d="M156 174.295c0 3.15-25.072 5.705-56 5.705s-56-2.554-56-5.705c0-3.15 25.072-5.705 56-5.705s56 2.554 56 5.705z" opacity=".3"></path><path d="m78.26 114.333 5.177 23.255-31.022-5.345-5.176-23.255 31.021 5.345z" data-color="6" class="background"></path><path d="m111.227 83.253 5.177 23.255-7.942 7.487a22.331 22.331 0 0 0-10.081 5.809c-2.59 2.589-4.36 5.644-5.179 8.579l-9.765 9.206-5.177-23.255-31.022-5.345 9.779-9.219c8.964-2.904 15.234-7.246 15.617-14.727l7.568-7.135 31.025 5.345z" data-color="6" class="background"></path><path d="m78.701 116.311.181.031 4.699 21.11-.144.136-4.736-21.277z" data-color="3" class="background"></path><path d="m111.227 83.253.44 1.977-18.781-3.236 1.51-1.428-4.876-.704-1.392 1.314-7.304-1.259-7.568 7.135c-.383 7.481-6.653 11.823-15.617 14.727l-8.074 7.612-2.327-.401 9.779-9.219c8.964-2.904 15.234-7.246 15.617-14.727l7.568-7.135 31.025 5.344z" data-color="3" class="background"></path><path d="m103.207 82.273-10.18 9.599-2.905 2.74-4.485 4.226-2.262 2.136-1.723 1.623-3.806 3.588-.516-.106-7.487-1.523 6.602-6.345 4.254-4.087 1.717-1.653 2.259-2.17 4.477-4.302 2.899-2.789 2.549-2.449 8.607 1.512z" data-color="3" class="background"></path><path d="m103.207 82.273-10.18 9.599-2.905 2.74-4.485 4.226-2.262 2.136-1.723 1.623-3.806 3.588-.516-.106-7.487-1.523 6.602-6.345 4.254-4.087 1.717-1.653 2.259-2.17 4.477-4.302 2.899-2.789 2.549-2.449 8.607 1.512z" opacity=".2"></path><path d="m80.699 94.124.953 8.473-3.806 3.588-.516-.106-.885-7.868 4.254-4.087z" data-color="3" class="background"></path><path d="m84.675 90.301.962 8.537-2.262 2.136-.959-8.503 2.259-2.17z" data-color="3" class="background"></path><path d="m92.051 83.21.976 8.662-2.905 2.74-.97-8.613 2.899-2.789z" data-color="3" class="background"></path><path d="m80.699 94.124.953 8.473-3.806 3.588-.516-.106-.885-7.868 4.254-4.087z" opacity=".1"></path><path d="m84.675 90.301.962 8.537-2.262 2.136-.959-8.503 2.259-2.17z" opacity=".1"></path><path d="m92.051 83.21.976 8.662-2.905 2.74-.97-8.613 2.899-2.789z" opacity=".1"></path><path d="M101.08 117.5c-.499.425-1.022.901-1.591 1.441l-.032-.145a21.886 21.886 0 0 1 1.623-1.296z" data-color="5" class="shape"></path><path d="m72.133 104.634 6.051 1.23-.338.321-8.003-1.629L94.6 80.761l2.005.353-24.472 23.52z" data-color="3" class="background"></path><path d="m77.893 106.347 25.634-24.169-8.976-1.577-25.018 24.045 8.36 1.701zM94.65 80.921l8.238 1.447L77.8 106.023l-7.648-1.556L94.65 80.921z" data-color="6" class="background"></path><path d="M69.659 127.755a4.16 4.16 0 0 0 .187-.165c.773-2.13-.031-5.277-2.23-7.927-2.842-3.422-6.937-4.72-9.147-2.9a4.16 4.16 0 0 0-.187.165c-.773 2.13.031 5.277 2.23 7.927 2.842 3.423 6.937 4.721 9.147 2.9z" data-color="6" class="background"></path><path d="m94.396 80.565-4.874-.703-25.41 23.955 5.044.631 25.24-23.883z" data-color="6" class="background"></path><path d="m116.403 106.508-.885-3.977-7.942 7.487-.266.073-4.223-18.969c-2.974.433-4.968 1.386-8.777 4.562l4.26 19.135a22.43 22.43 0 0 0-1.075 1.008c-2.59 2.589-4.36 5.644-5.179 8.579l-9.494 8.95-3.816-17.144-.501-.087 4.762 21.393c-4.63-1.823-8.951-3.932-12.958-6.33a5.774 5.774 0 0 1-2.622 1.328c-3.23.714-7.157-1.041-10.005-4.47-1.68-2.023-2.755-4.379-3.026-6.637a8.281 8.281 0 0 1 .072-2.581 71.498 71.498 0 0 1-7.297-8.967l4.982 22.382 30.862 5.318.071.318.398-.377-.038-.169 9.494-8.95c.818-2.935 2.589-5.989 5.179-8.579.304-.305.623-.598.948-.889l.071.317.192-.183a39.97 39.97 0 0 1 1.585-1.436l-.093-.117a22.335 22.335 0 0 1 7.377-3.502l7.944-7.486z" data-color="6" class="background"></path><g opacity=".3"><path d="m77.893 106.347 25.634-24.169-8.976-1.577-25.018 24.045 8.36 1.701zM94.65 80.921l8.238 1.447L77.8 106.023l-7.648-1.556L94.65 80.921z"></path><path d="M69.659 127.755a4.16 4.16 0 0 0 .187-.165c.773-2.13-.031-5.277-2.23-7.927-2.842-3.422-6.937-4.72-9.147-2.9a4.16 4.16 0 0 0-.187.165c-.773 2.13.031 5.277 2.23 7.927 2.842 3.423 6.937 4.721 9.147 2.9z"></path><path d="m94.396 80.565-4.874-.703-25.41 23.955 5.044.631 25.24-23.883z"></path><path d="m116.403 106.508-.885-3.977-7.942 7.487-.266.073-4.223-18.969c-2.974.433-4.968 1.386-8.777 4.562l4.26 19.135a22.43 22.43 0 0 0-1.075 1.008c-2.59 2.589-4.36 5.644-5.179 8.579l-9.494 8.95-3.816-17.144-.501-.087 4.762 21.393c-4.63-1.823-8.951-3.932-12.958-6.33a5.774 5.774 0 0 1-2.622 1.328c-3.23.714-7.157-1.041-10.005-4.47-1.68-2.023-2.755-4.379-3.026-6.637a8.281 8.281 0 0 1 .072-2.581 71.498 71.498 0 0 1-7.297-8.967l4.982 22.382 30.862 5.318.071.318.398-.377-.038-.169 9.494-8.95c.818-2.935 2.589-5.989 5.179-8.579.304-.305.623-.598.948-.889l.071.317.192-.183a39.97 39.97 0 0 1 1.585-1.436l-.093-.117a22.335 22.335 0 0 1 7.377-3.502l7.944-7.486z"></path></g><path d="m117.282 106.314-5.177-23.255a.897.897 0 0 0-.725-.689l-31.024-5.345a.903.903 0 0 0-.772.232l-7.568 7.135a.894.894 0 0 0-.28.605c-.322 6.287-5.088 10.71-14.997 13.92a.903.903 0 0 0-.34.201l-9.779 9.218a.895.895 0 0 0-.26.845l5.177 23.255a.897.897 0 0 0 .725.689l31.022 5.345a.899.899 0 0 0 .771-.232l9.765-9.206a.896.896 0 0 0 .249-.411c.807-2.894 2.565-5.802 4.95-8.186a21.471 21.471 0 0 1 9.675-5.575.894.894 0 0 0 .386-.215l7.942-7.487a.893.893 0 0 0 .26-.844zm-15.536-23.785L90.883 92.772c-.395-.733-1.779-1.058-3.303-.722-1.68.371-2.879 1.4-2.679 2.299.195.875 1.647 1.297 3.274.976l-10.593 9.987-6.624-1.142 24.167-22.782 6.621 1.141zm-8.633-1.487-24.167 22.782-3.087-.532L90.025 80.51l3.088.532zm-35.624 19.517c10.4-3.407 15.504-8.218 16.021-15.108l6.983-6.584 7.519 1.295-24.462 23.063a.813.813 0 0 0 .422 1.394l13.734 2.368a.816.816 0 0 0 .701-.211l25.35-23.901 5.647.973-6.533 6.159c-8.478 2.336-13.898 8.997-15.572 14.682l-9.304 8.771-28.909-4.981 8.403-7.92zm-4.326 30.903-4.775-21.449 29.193 5.03 4.775 21.449-29.193-5.03zm30.739 4.454-4.743-21.308 8.381-7.901 4.743 21.308-8.381 7.901zm13.842-16.745c-1.843 1.842-3.338 3.981-4.373 6.205l-4.5-20.215c1.497-5.107 6.295-11.066 13.807-13.385l4.802 21.577a23.262 23.262 0 0 0-9.736 5.818zm11.183-6.849-4.743-21.308 6.488-6.116 4.743 21.308-6.488 6.116z" data-color="5" class="shape"></path><path d="M57.596 116.228c-2.682 2.21-2.208 7.043 1.08 11.003 2.225 2.68 5.086 4.173 7.534 4.173 1.169 0 2.244-.34 3.11-1.055 2.682-2.21 2.208-7.043-1.08-11.003-3.287-3.958-7.962-5.329-10.644-3.118zm10.681 12.866c-1.91 1.573-5.73.245-8.342-2.902-2.613-3.146-3.207-7.135-1.297-8.709.547-.451 1.25-.663 2.038-.663 1.961 0 4.44 1.32 6.305 3.565 2.612 3.147 3.206 7.135 1.296 8.709z" data-color="5" class="shape"></path></g></g>
</svg>
</g></svg></svg>